<svg width="31" height="31" viewBox="0 0 31 31" fill="none" xmlns="http://www.w3.org/2000/svg">
<g clip-path="url(#clip0_228_3)">
<path d="M9.29995 9.30005H6.19995V12.4H9.29995V9.30005Z" fill="white"/>
<path d="M12.4 3.09998H9.30005V6.19998H12.4V3.09998Z" fill="black"/>
<path d="M9.29995 3.09998H6.19995V6.19998H9.29995V3.09998Z" fill="black"/>
<path d="M15.4999 6.19995H12.3999V9.29995H15.4999V6.19995Z" fill="black"/>
<path d="M18.6 6.19995H15.5V9.29995H18.6V6.19995Z" fill="black"/>
<path d="M21.7001 3.09998H18.6001V6.19998H21.7001V3.09998Z" fill="black"/>
<path d="M24.8 3.09998H21.7V6.19998H24.8V3.09998Z" fill="black"/>
<path d="M27.9 3.09998H24.8V6.19998H27.9V3.09998Z" fill="black"/>
<path d="M30.9999 6.19995H27.8999V9.29995H30.9999V6.19995Z" fill="black"/>
<path d="M30.9999 9.30005H27.8999V12.4H30.9999V9.30005Z" fill="black"/>
<path d="M6.2001 3.09998H3.1001V6.19998H6.2001V3.09998Z" fill="black"/>
<path d="M3.1 6.19995H0V9.29995H3.1V6.19995Z" fill="black"/>
<path d="M3.1 9.30005H0V12.4H3.1V9.30005Z" fill="black"/>
<path d="M3.1 12.4H0V15.5H3.1V12.4Z" fill="black"/>
<path d="M30.9999 12.4H27.8999V15.5H30.9999V12.4Z" fill="black"/>
<path d="M6.2001 15.5H3.1001V18.6H6.2001V15.5Z" fill="black"/>
<path d="M9.29995 18.6H6.19995V21.7H9.29995V18.6Z" fill="black"/>
<path d="M12.4 21.7H9.30005V24.8H12.4V21.7Z" fill="black"/>
<path d="M15.4999 24.8H12.3999V27.9H15.4999V24.8Z" fill="black"/>
<path d="M18.6 24.8H15.5V27.9H18.6V24.8Z" fill="black"/>
<path d="M21.7001 21.7H18.6001V24.8H21.7001V21.7Z" fill="black"/>
<path d="M24.8 18.6H21.7V21.7H24.8V18.6Z" fill="black"/>
<path d="M27.9 15.5H24.8V18.6H27.9V15.5Z" fill="black"/>
<path d="M6.2001 6.19995H3.1001V9.29995H6.2001V6.19995Z" fill="#9D0000"/>
<path d="M9.29995 6.19995H6.19995V9.29995H9.29995V6.19995Z" fill="#FF0000"/>
<path d="M12.4 6.19995H9.30005V9.29995H12.4V6.19995Z" fill="#FF0000"/>
<path d="M6.2001 9.30005H3.1001V12.4H6.2001V9.30005Z" fill="#9D0000"/>
<path d="M9.29995 9.30005H6.19995V12.4H9.29995V9.30005Z" fill="#FF0000"/>
<path d="M12.4 9.30005H9.30005V12.4H12.4V9.30005Z" fill="#FF0000"/>
<path d="M6.2001 12.4H3.1001V15.5H6.2001V12.4Z" fill="#9D0000"/>
<path d="M9.29995 12.4H6.19995V15.5H9.29995V12.4Z" fill="#FF0000"/>
<path d="M12.4 12.4H9.30005V15.5H12.4V12.4Z" fill="#FF0000"/>
<path d="M9.29995 15.5H6.19995V18.6H9.29995V15.5Z" fill="#9D0000"/>
<path d="M12.4 15.5H9.30005V18.6H12.4V15.5Z" fill="#FF0000"/>
<path d="M12.4 18.6H9.30005V21.7H12.4V18.6Z" fill="#9D0000"/>
<path d="M15.4999 18.6H12.3999V21.7H15.4999V18.6Z" fill="#FF0000"/>
<path d="M15.4999 21.7H12.3999V24.8H15.4999V21.7Z" fill="#9D0000"/>
<path d="M18.6 21.7H15.5V24.8H18.6V21.7Z" fill="#FF0000"/>
<path d="M18.6 18.6H15.5V21.7H18.6V18.6Z" fill="#FF0000"/>
<path d="M15.4999 15.5H12.3999V18.6H15.4999V15.5Z" fill="#FF0000"/>
<path d="M18.6 15.5H15.5V18.6H18.6V15.5Z" fill="#FF0000"/>
<path d="M18.6 12.4H15.5V15.5H18.6V12.4Z" fill="#FF0000"/>
<path d="M15.4999 12.4H12.3999V15.5H15.4999V12.4Z" fill="#FF0000"/>
<path d="M15.4999 9.30005H12.3999V12.4H15.4999V9.30005Z" fill="#FF0000"/>
<path d="M18.6 9.30005H15.5V12.4H18.6V9.30005Z" fill="#FF0000"/>
<path d="M21.7001 12.4H18.6001V15.5H21.7001V12.4Z" fill="#FF0000"/>
<path d="M24.8 15.5H21.7V18.6H24.8V15.5Z" fill="#FF0000"/>
<path d="M21.7001 15.5H18.6001V18.6H21.7001V15.5Z" fill="#FF0000"/>
<path d="M21.7001 18.6H18.6001V21.7H21.7001V18.6Z" fill="#FF0000"/>
<path d="M24.8 12.4H21.7V15.5H24.8V12.4Z" fill="#FF0000"/>
<path d="M27.9 12.4H24.8V15.5H27.9V12.4Z" fill="#FF5757"/>
<path d="M21.7001 9.30005H18.6001V12.4H21.7001V9.30005Z" fill="#FF0000"/>
<path d="M24.8 9.30005H21.7V12.4H24.8V9.30005Z" fill="#FF0000"/>
<path d="M27.9 9.30005H24.8V12.4H27.9V9.30005Z" fill="#FF5757"/>
<path d="M27.9 6.19995H24.8V9.29995H27.9V6.19995Z" fill="#FF5757"/>
<path d="M24.8 6.19995H21.7V9.29995H24.8V6.19995Z" fill="#FF5757"/>
<path d="M21.7001 6.19995H18.6001V9.29995H21.7001V6.19995Z" fill="#FF5757"/>
</g>
<defs>
<clipPath id="clip0_228_3">
<rect width="31" height="31" fill="white"/>
</clipPath>
</defs>
</svg>
